<svg width="40" height="48" viewBox="0 0 40 48" fill="none" xmlns="http://www.w3.org/2000/svg">
  <!-- Base do pin -->
  <path d="M20 0C9 0 0 9 0 20C0 31 9 40 20 40C31 40 40 31 40 20C40 9 31 0 20 0Z" fill="#0B6623" />
  
  <!-- Sombra do pin -->
  <path d="M40 20C40 31 31 40 20 40C9 40 0 31 0 20C0 20 0 48 20 48C40 48 40 20 40 20Z" fill="#0B6623" opacity="0.5" />
  
  <!-- Círculo interno -->
  <circle cx="20" cy="20" r="10" fill="white" />
  
  <!-- Folha no centro -->
  <path d="M25 15C25 15 20 20 15 17.5C10 15 7.5 12.5 7.5 12.5C7.5 12.5 12.5 25 17.5 27.5C22.5 30 25 15 25 15Z" fill="#5DBB63" />
</svg>