<svg width="60" height="60" viewBox="0 0 60 60" fill="none" xmlns="http://www.w3.org/2000/svg">
  <!-- Círculo de fundo -->
  <circle cx="30" cy="30" r="28" fill="#1E90FF" />
  
  <!-- Globo estilizado -->
  <ellipse cx="30" cy="30" rx="20" ry="20" stroke="white" stroke-width="1.5" fill="none" />
  <path d="M10 30H50" stroke="white" stroke-width="1" />
  <path d="M30 10V50" stroke="white" stroke-width="1" />
  <path d="M15 15C15 15 20 25 30 25C40 25 45 15 45 15" stroke="white" stroke-width="1" />
  <path d="M15 45C15 45 20 35 30 35C40 35 45 45 45 45" stroke="white" stroke-width="1" />
  
  <!-- Folha representando a Amazônia -->
  <path d="M32 20C32 20 28 25 24 23C20 21 18 18 18 18C18 18 22 28 26 30C30 32 32 20 32 20Z" fill="#5DBB63" />
  
  <!-- Texto COP30 -->
  <text x="17" y="38" font-family="Arial, sans-serif" font-weight="bold" font-size="10" fill="white">COP30</text>
</svg>