<svg width="24" height="24" viewBox="0 0 24 24" fill="none" xmlns="http://www.w3.org/2000/svg">
  <path d="M7 10V17" stroke="currentColor" stroke-width="2" stroke-linecap="round"/>
  <path d="M4 17V10H7" stroke="currentColor" stroke-width="2" stroke-linecap="round" stroke-linejoin="round"/>
  <path d="M12 17H16.5C17.3284 17 18 16.3284 18 15.5C18 14.6716 17.3284 14 16.5 14H18C18.8284 14 19.5 13.3284 19.5 12.5C19.5 11.6716 18.8284 11 18 11H19C19.8284 11 20.5 10.3284 20.5 9.5C20.5 8.67157 19.8284 8 19 8H14L15 5C15 5 15.5 3 13.5 3C11.5 3 11 10 7 10H12V17Z" stroke="currentColor" stroke-width="2" stroke-linecap="round" stroke-linejoin="round"/>
</svg>