<svg width="24" height="24" viewBox="0 0 24 24" fill="none" xmlns="http://www.w3.org/2000/svg">
  <path d="M20 12V22H4V12" stroke="currentColor" stroke-width="2" stroke-linecap="round" stroke-linejoin="round"/>
  <path d="M22 7H2V12H22V7Z" stroke="currentColor" stroke-width="2" stroke-linecap="round" stroke-linejoin="round"/>
  <path d="M12 22V7" stroke="currentColor" stroke-width="2" stroke-linecap="round" stroke-linejoin="round"/>
  <path d="M12 7H16.5C17.1667 7 18.5 6.3 18.5 4.5C18.5 2.7 17.1667 2 16.5 2C15.8333 2 14.5 2.7 14.5 4.5L15 7" stroke="currentColor" stroke-width="2" stroke-linecap="round" stroke-linejoin="round"/>
  <path d="M12 7H7.5C6.83333 7 5.5 6.3 5.5 4.5C5.5 2.7 6.83333 2 7.5 2C8.16667 2 9.5 2.7 9.5 4.5L9 7" stroke="currentColor" stroke-width="2" stroke-linecap="round" stroke-linejoin="round"/>
</svg>