<svg width="24" height="24" viewBox="0 0 24 24" fill="none" xmlns="http://www.w3.org/2000/svg">
  <path d="M12 15C13.6569 15 15 13.6569 15 12C15 10.3431 13.6569 9 12 9C10.3431 9 9 10.3431 9 12C9 13.6569 10.3431 15 12 15Z" stroke="currentColor" stroke-width="2" stroke-linecap="round" stroke-linejoin="round"/>
  <path d="M19.4 15C19.1277 15.6077 19.1573 16.3036 19.48 16.88L19.54 17C19.8022 17.5798 19.7946 18.2491 19.5304 18.8222C19.2663 19.3953 18.7736 19.8231 18.18 20.02L18.12 20C17.5313 20.255 17.0736 20.7367 16.88 21.33C16.6652 21.8849 16.6724 22.4934 16.8997 23.0424C17.1271 23.5915 17.5566 24.043 18.1 24.29L18.16 24.34C18.7377 24.5608 19.1723 25.017 19.3568 25.5871C19.5412 26.1571 19.4506 26.7758 19.1121 27.2729C18.7736 27.77 18.2288 28.0862 17.6306 28.1318C17.0323 28.1773 16.4487 27.9476 16.04 27.51L16 27.46C15.6291 27.0527 15.1265 26.7977 14.59 26.74C14.0373 26.6684 13.4755 26.8054 13.02 27.13L12.94 27.18C12.4745 27.5089 12.1524 28.0063 12.0423 28.5621C11.9322 29.1179 12.0419 29.6939 12.34 30.17L12.39 30.23C12.6656 30.7113 12.7188 31.2783 12.5386 31.7966C12.3584 32.3148 11.9616 32.7347 11.455 32.9612C10.9485 33.1877 10.3756 33.1997 9.8602 32.995C9.34482 32.7902 8.9327 32.3853 8.73 31.88L8.67 31.82C8.44553 31.2969 8.01581 30.8915 7.47722 30.693C6.93863 30.4946 6.34506 30.5205 5.83 30.77L5.76 30.81C5.26155 31.06 4.68365 31.0836 4.16447 30.8739C3.64529 30.6642 3.23725 30.2399 3.05 29.72L3 29.66C2.76555 29.0899 2.32922 28.6176 1.76405 28.366C1.19888 28.1145 0.553639 28.1073 -0.000291824 28.34" stroke="currentColor" stroke-width="2" stroke-linecap="round" stroke-linejoin="round"/>
  <path d="M13.13 7.39998C12.9583 7.19735 12.7399 7.04021 12.4944 6.94074C12.2488 6.84128 11.9829 6.8018 11.7175 6.82559C11.4522 6.84938 11.1966 6.93568 10.9722 7.0779C10.7478 7.22013 10.5604 7.41416 10.425 7.64298C10.2896 7.8718 10.2102 8.12857 10.1931 8.39327C10.1761 8.65797 10.2218 8.92253 10.3267 9.16494C10.4315 9.40736 10.5929 9.6221 10.7983 9.78887C11.0037 9.95564 11.2478 10.0699 11.51 10.12L11.36 10.32C11.173 10.6113 11.0839 10.9578 11.1072 11.3054C11.1305 11.653 11.2648 11.9832 11.4894 12.245C11.7141 12.5069 12.0172 12.6864 12.3533 12.7568C12.6894 12.8272 13.0392 12.785 13.35 12.64L13.39 12.62" stroke="currentColor" stroke-width="2" stroke-linecap="round" stroke-linejoin="round"/>
</svg>